<svg xmlns="http://www.w3.org/2000/svg" viewBox="0 0 1180 610" width="1180" height="610">
  <defs>
    <!-- Fonts & Keyframes CSS styling for crisp rendering -->
    <style>
      .mono-text {
        font-family: 'Fira Code', 'JetBrains Mono', 'SF Mono', Consolas, 'Courier New', monospace;
      }
      .sans-text {
        font-family: -apple-system, BlinkMacSystemFont, 'Segoe UI', Roboto, Helvetica, Arial, sans-serif;
      }
      .panel-float {
        animation: floatSlow 6s ease-in-out infinite;
      }
      @keyframes floatSlow {
        0%, 100% { transform: translateY(0px); }
        50% { transform: translateY(-5px); }
      }
      .pulse-dot {
        animation: pulseGlow 2s ease-in-out infinite;
      }
      @keyframes pulseGlow {
        0%, 100% { opacity: 1; }
        50% { opacity: 0.4; }
      }
      .orb-1 { animation: orbFloat1 12s ease-in-out infinite; }
      @keyframes orbFloat1 {
        0%, 100% { transform: translate(0px, 0px); }
        50% { transform: translate(40px, 30px); }
      }
      .orb-2 { animation: orbFloat2 15s ease-in-out infinite; }
      @keyframes orbFloat2 {
        0%, 100% { transform: translate(0px, 0px); }
        50% { transform: translate(-50px, -40px); }
      }
      .orb-3 { animation: orbFloat3 18s ease-in-out infinite; }
      @keyframes orbFloat3 {
        0%, 100% { transform: translate(0px, 0px); }
        50% { transform: translate(30px, -20px); }
      }
      .scanline {
        animation: scanAnim 4s linear infinite;
      }
      @keyframes scanAnim {
        0% { transform: translateY(0px); }
        50% { transform: translateY(480px); }
        100% { transform: translateY(0px); }
      }
      .cursor-blink {
        animation: blink 0.8s step-end infinite;
      }
      @keyframes blink {
        0%, 100% { opacity: 1; }
        50% { opacity: 0; }
      }
      .role-1 { animation: roleCycle1 12s infinite; }
      .role-2 { animation: roleCycle2 12s infinite; }
      .role-3 { animation: roleCycle3 12s infinite; }
      .role-4 { animation: roleCycle4 12s infinite; }
      @keyframes roleCycle1 {
        0%, 22% { opacity: 1; }
        25%, 100% { opacity: 0; }
      }
      @keyframes roleCycle2 {
        0%, 22% { opacity: 0; }
        25%, 47% { opacity: 1; }
        50%, 100% { opacity: 0; }
      }
      @keyframes roleCycle3 {
        0%, 47% { opacity: 0; }
        50%, 72% { opacity: 1; }
        75%, 100% { opacity: 0; }
      }
      @keyframes roleCycle4 {
        0%, 72% { opacity: 0; }
        75%, 97% { opacity: 1; }
        100% { opacity: 0; }
      }
    </style>

    <!-- Filters for Glow & Glass Shadow -->
    <filter id="glow-cyan" x="-20%" y="-20%" width="140%" height="140%">
      <feGaussianBlur stdDeviation="8" result="blur" />
      <feComposite in="SourceGraphic" in2="blur" operator="over" />
    </filter>
    <filter id="glow-purple" x="-20%" y="-20%" width="140%" height="140%">
      <feGaussianBlur stdDeviation="12" result="blur" />
      <feComposite in="SourceGraphic" in2="blur" operator="over" />
    </filter>
    <filter id="pill-shadow" x="-10%" y="-10%" width="120%" height="120%">
      <feDropShadow dx="0" dy="4" stdDeviation="6" flood-color="#000000" flood-opacity="0.5"/>
    </filter>
    <filter id="panel-shadow" x="-5%" y="-5%" width="110%" height="110%">
      <feDropShadow dx="0" dy="12" stdDeviation="20" flood-color="#000000" flood-opacity="0.6"/>
    </filter>

    <!-- Accent Gradients -->
    <linearGradient id="accent-grad" x1="0%" y1="0%" x2="100%" y2="100%">
      <stop offset="0%" stop-color="#7C3AED" />
      <stop offset="50%" stop-color="#22D3EE" />
      <stop offset="100%" stop-color="#10B981" />
    </linearGradient>

    <!-- ASCII Gradient -->
    <linearGradient id="ascii-grad" x1="0%" y1="0%" x2="0%" y2="100%">
      <stop offset="0%" stop-color="#22D3EE" />
      <stop offset="100%" stop-color="#A855F7" />
    </linearGradient>

    <!-- Border Gradient -->
    <linearGradient id="border-grad" x1="0%" y1="0%" x2="100%" y2="100%">
      <stop offset="0%" stop-color="#7C3AED" stop-opacity="0.8" />
      <stop offset="50%" stop-color="#ffffff" stop-opacity="0.1" />
      <stop offset="100%" stop-color="#22D3EE" stop-opacity="0.8" />
    </linearGradient>

    <!-- Background Radial Orbs -->
    <radialGradient id="orb-purple" cx="50%" cy="50%" r="50%">
      <stop offset="0%" stop-color="#7C3AED" stop-opacity="0.25" />
      <stop offset="100%" stop-color="#030712" stop-opacity="0" />
    </radialGradient>
    <radialGradient id="orb-cyan" cx="50%" cy="50%" r="50%">
      <stop offset="0%" stop-color="#22D3EE" stop-opacity="0.2" />
      <stop offset="100%" stop-color="#030712" stop-opacity="0" />
    </radialGradient>
    <radialGradient id="orb-emerald" cx="50%" cy="50%" r="50%">
      <stop offset="0%" stop-color="#10B981" stop-opacity="0.18" />
      <stop offset="100%" stop-color="#030712" stop-opacity="0" />
    </radialGradient>

    <!-- Glass Reflection Gradient -->
    <linearGradient id="glass-glare" x1="0%" y1="0%" x2="100%" y2="100%">
      <stop offset="0%" stop-color="#ffffff" stop-opacity="0.08" />
      <stop offset="30%" stop-color="#ffffff" stop-opacity="0.02" />
      <stop offset="100%" stop-color="#ffffff" stop-opacity="0" />
    </linearGradient>

    <!-- Scanline Gradient -->
    <linearGradient id="scanline-grad" x1="0%" y1="0%" x2="0%" y2="100%">
      <stop offset="0%" stop-color="#22D3EE" stop-opacity="0" />
      <stop offset="50%" stop-color="#22D3EE" stop-opacity="0.3" />
      <stop offset="100%" stop-color="#22D3EE" stop-opacity="0" />
    </linearGradient>

    <!-- Tech Skill Pill Background Gradient -->
    <linearGradient id="pill-bg" x1="0%" y1="0%" x2="100%" y2="0%">
      <stop offset="0%" stop-color="#1E293B" stop-opacity="0.8" />
      <stop offset="100%" stop-color="#0F172A" stop-opacity="0.9" />
    </linearGradient>

    <!-- Grid Pattern Overlay -->
    <pattern id="grid-pattern" width="30" height="30" patternUnits="userSpaceOnUse">
      <path d="M 30 0 L 0 0 0 30" fill="none" stroke="#ffffff" stroke-opacity="0.025" stroke-width="1" />
    </pattern>
  </defs>

  <!-- ================= BACKGROUND LAYER ================= -->
  <!-- Base Background Canvas -->
  <rect width="1180" height="610" rx="20" ry="20" fill="#030712" />
  
  <!-- Subtle Grid Texture -->
  <rect width="1180" height="610" rx="20" ry="20" fill="url(#grid-pattern)" />

  <!-- Dynamic Ambient Glowing Orbs -->
  <g opacity="0.8">
    <circle class="orb-1" cx="150" cy="120" r="280" fill="url(#orb-purple)" />
    <circle class="orb-2" cx="1000" cy="480" r="320" fill="url(#orb-cyan)" />
    <circle class="orb-3" cx="600" cy="300" r="250" fill="url(#orb-emerald)" />
  </g>

  <!-- Animated Ambient Floating Particles -->
  <g fill="#22D3EE" opacity="0.6">
    <circle cx="120" cy="480" r="1.5" />
    <circle cx="380" cy="140" r="2" />
    <circle cx="750" cy="520" r="1.2" />
    <circle cx="1100" cy="180" r="2.5" />
    <circle cx="520" cy="80" r="1.8" />
  </g>

  <!-- Outer Canvas Border Shimmer -->
  <rect x="1" y="1" width="1178" height="608" rx="19" ry="19" fill="none" stroke="url(#border-grad)" stroke-width="1.5" opacity="0.7" />

  <!-- ================= LEFT PANEL (ASCII ART & CYBER PORTRAIT) ================= -->
  <g transform="translate(30, 30)">
    <!-- Floating Wrapper for Left Side -->
    <g class="panel-float">
      <!-- Panel Background & Glassmorphism -->
      <rect width="410" height="550" rx="16" fill="#0F172A" fill-opacity="0.65" stroke="rgba(255,255,255,0.1)" stroke-width="1" filter="url(#panel-shadow)" />
      <rect width="410" height="550" rx="16" fill="url(#glass-glare)" />
      
      <!-- Cyber Panel Header -->
      <path d="M 0 16 C 0 7.163 7.163 0 16 0 L 394 0 C 402.837 0 410 7.163 410 16 L 410 42 L 0 42 Z" fill="#1E293B" fill-opacity="0.5" />
      <line x1="0" y1="42" x2="410" y2="42" stroke="rgba(255,255,255,0.08)" stroke-width="1" />
      
      <!-- Status Badge & Cyber Title -->
      <circle cx="24" cy="21" r="4" fill="#10B981" filter="url(#glow-cyan)" />
      <circle class="pulse-dot" cx="24" cy="21" r="4" fill="#10B981" />
      <text x="38" y="25" class="mono-text" font-size="11" font-weight="600" fill="#94A3B8" letter-spacing="1">SYSTEM.ASCII // PORTRAIT_V3</text>
      
      <!-- Corner Decorative Brackets -->
      <path d="M 12 56 L 12 48 L 20 48" fill="none" stroke="#22D3EE" stroke-width="1.5" opacity="0.6" />
      <path d="M 398 56 L 398 48 L 390 48" fill="none" stroke="#22D3EE" stroke-width="1.5" opacity="0.6" />
      <path d="M 12 534 L 12 542 L 20 542" fill="none" stroke="#22D3EE" stroke-width="1.5" opacity="0.6" />
      <path d="M 398 534 L 398 542 L 390 542" fill="none" stroke="#22D3EE" stroke-width="1.5" opacity="0.6" />

      <!-- ASCII Portrait Content -->
      <g>
        <!-- Cyber ASCII Character Art -->
        <text class="mono-text" font-size="9.2" font-weight="700" fill="url(#ascii-grad)" letter-spacing="1.2" xml:space="preserve" filter="url(#glow-purple)">
          <tspan x="20" y="70">@@@@@@@@@@@@@@@@@@@@@@@@@@@@@@@@@@@@@@@@@</tspan>
          <tspan x="20" y="83">@@@@@@@%%%%%%%%%%%@@%%%%%%%@@@@@@@@@@@@@@</tspan>
          <tspan x="20" y="96">@@%%%%%%%%%%%%%%%%@@@@%%@@%%%%%@@@@@@@@@@</tspan>
          <tspan x="20" y="109">%%%%%%%%%%@%%@%@%%@@@@@@@@@@@%%%%@@@@@@@@</tspan>
          <tspan x="20" y="122">%%%%%%%%@@@@@@@@@@@@@@@@@@@@@@@%%%@@@@@@@</tspan>
          <tspan x="20" y="135">%%%%%%%%@@@@@#=--+**#*+*%@@@@@%%%%%@@@@@@</tspan>
          <tspan x="20" y="148">%%%%%%%%%@@@+::.....::-=+*%@@%%%%%%%@@@@@</tspan>
          <tspan x="20" y="161">%%%%%%%%%#%%:=**##=:=#%%#*#@%%%%%%%%@@@@@</tspan>
          <tspan x="20" y="174">%%%%%%%%%*:+-.::-:. .=----**#%%%%%%@@@@@@</tspan>
          <tspan x="20" y="187">%%%%%%%%%#-.=-. ..--=+=-:+**%%%%%%%%@@@@@</tspan>
          <tspan x="20" y="200">%%%%%%%%%%%*##+++==+**###%%%%%%%%%%@@@@@@</tspan>
          <tspan x="20" y="213">%%%%%%%%%%%%%%***==++**###@@%%%%%%@@@@@@@</tspan>
          <tspan x="20" y="226">%%%%%%%%%%%%%%#=*###%%%#*=:%@%%%%%@@@@@@@</tspan>
          <tspan x="20" y="239">%%%%%%%%%%%%%%-::-=**+=:.  #@@@@@@@@@@@@@</tspan>
          <tspan x="20" y="252">%%%%%%%%%%%%%%. .::.     :%@@@@@@@@@@@@@@</tspan>
          <tspan x="20" y="265">%%%%%%%%%@@%@* :##%#=   =%%%%%%%%%%%%%%%%</tspan>
          <tspan x="20" y="278">%%%%@%%%%%@%#. :%@#-.  +%%%%%%%%%%%%%%%%%</tspan>
          <tspan x="20" y="291">%%%%%%%%%@%%- :#%@+   +%%%%%%%%%%%%%%%@@@</tspan>
          <tspan x="20" y="304">%%%%%%%%%@%+ .%%%%+ .#%%%%%%%%%%%%%%%@@@@</tspan>
          <tspan x="20" y="317">@@@%%%%%@%%- *@%%@:.#%%%%%%%%%%%%%@@%@@@@</tspan>
          <tspan x="20" y="330">@@@@%%%%@%%..%%%%%=%%%%%%%%%%%%@@@@@@@@@@</tspan>
          <tspan x="20" y="343">@@@@@%%%%%%.=@%%%%%@%%%%%%%@@@@@@@@@@@@@@</tspan>
          <tspan x="20" y="356">@@@@@@%%%%@-*@%%%%%%%@%%%@@@@@@@@@@@@@@@@</tspan>
          <tspan x="20" y="369">@@@@@@%%%%@#%@@@%%@@@%@@@@@@@@@@@@@@@@@@@</tspan>
          <tspan x="20" y="382">@@@@@@@@@@%@@@@%@@@@%@@@@@@@@@@@@@@@@@@@@</tspan>
          <tspan x="20" y="395">@@@@@@@@@@@%@@@%@@@@@@@@@@@@@@@@@@@@@@@@@</tspan>
        </text>
      </g>

      <!-- Moving Scanline Effect -->
      <rect class="scanline" x="1" y="43" width="408" height="20" fill="url(#scanline-grad)" opacity="0.7" />

      <!-- Bottom Status Bar -->
      <line x1="20" y1="490" x2="390" y2="490" stroke="rgba(255,255,255,0.08)" stroke-width="1" />
      <g transform="translate(20, 518)">
        <text class="mono-text" font-size="11" fill="#94A3B8">STATUS: <tspan fill="#10B981" font-weight="700">ACTIVE</tspan></text>
        <text x="210" y="0" class="mono-text" font-size="11" fill="#94A3B8">FPS: <tspan fill="#22D3EE">60.0</tspan></text>
        <text x="300" y="0" class="mono-text" font-size="11" fill="#94A3B8">MEM: <tspan fill="#7C3AED">64%</tspan></text>
      </g>
    </g>
  </g>

  <!-- ================= RIGHT PANEL (PROFESSIONAL TERMINAL WINDOW) ================= -->
  <g transform="translate(465, 30)">
    <!-- Terminal Box Container -->
    <rect width="685" height="550" rx="16" fill="#0F172A" fill-opacity="0.75" stroke="rgba(255,255,255,0.1)" stroke-width="1" filter="url(#panel-shadow)" />
    <rect width="685" height="550" rx="16" fill="url(#glass-glare)" />

    <!-- Terminal Window Top Bar (Apple style window controls) -->
    <path d="M 0 16 C 0 7.163 7.163 0 16 0 L 669 0 C 677.837 0 685 7.163 685 16 L 685 44 L 0 44 Z" fill="#1E293B" fill-opacity="0.6" />
    <line x1="0" y1="44" x2="685" y2="44" stroke="rgba(255,255,255,0.08)" stroke-width="1" />
    
    <!-- Window Control Buttons -->
    <circle cx="22" cy="22" r="6" fill="#EF4444" opacity="0.85" />
    <circle cx="42" cy="22" r="6" fill="#F59E0B" opacity="0.85" />
    <circle cx="62" cy="22" r="6" fill="#10B981" opacity="0.85" />

    <!-- Terminal Window Title -->
    <text x="342" y="26" text-anchor="middle" class="mono-text" font-size="12" font-weight="500" fill="#94A3B8" letter-spacing="0.5">pradhyut@dev-station:~ (zsh)</text>
    
    <!-- Shell Info Badge -->
    <rect x="585" y="13" width="80" height="18" rx="4" fill="#334155" opacity="0.5" />
    <text x="625" y="26" text-anchor="middle" class="mono-text" font-size="10" fill="#CBD5E1">v2.4.0-main</text>

    <!-- Terminal Body Content -->
    <g transform="translate(32, 75)">
      
      <!-- Line 1: Command prompt & Greeting -->
      <g>
        <text class="mono-text" font-size="14" font-weight="600" fill="#22D3EE">❯ <tspan fill="#F8FAFC">whoami</tspan></text>
      </g>

      <!-- Line 2: Main Name Greeting -->
      <g transform="translate(0, 35)">
        <text class="sans-text" font-size="34" font-weight="800" fill="#F8FAFC" letter-spacing="-0.5">
          Hi <tspan font-size="30">👋</tspan> I'm <tspan fill="url(#accent-grad)">Pradhyut</tspan>
        </text>
      </g>

      <!-- Line 3: Animated Typing Roles Focus on AI Agents -->
      <g transform="translate(0, 75)">
        <text class="mono-text" font-size="18" font-weight="600" fill="#94A3B8">
          Role:
        </text>
        
        <!-- Multi-role Text Cycle overlay -->
        <g transform="translate(68, 0)">
          <!-- Phrase 1: Autonomous AI Agent Architect -->
          <text class="mono-text role-1" font-size="17" font-weight="700" fill="#38BDF8" opacity="0">
            Autonomous AI Agent Architect
          </text>
          <!-- Phrase 2: Multi-Agent Swarm Engineer -->
          <text class="mono-text role-2" font-size="17" font-weight="700" fill="#10B981" opacity="0">
            Multi-Agent Swarm Engineer
          </text>
          <!-- Phrase 3: Full-Stack AI Systems -->
          <text class="mono-text role-3" font-size="17" font-weight="700" fill="#A855F7" opacity="0">
            Full-Stack AI Systems
          </text>
          <!-- Phrase 4: Solo AI Product Builder -->
          <text class="mono-text role-4" font-size="17" font-weight="700" fill="#F59E0B" opacity="0">
            Solo AI Product Builder
          </text>
        </g>

        <!-- Blinking Terminal Cursor -->
        <rect class="cursor-blink" x="345" y="-15" width="9" height="20" fill="#22D3EE" rx="1" />
      </g>

      <!-- Horizontal Divider -->
      <line x1="0" y1="100" x2="620" y2="100" stroke="rgba(255,255,255,0.08)" stroke-width="1" />

      <!-- Section 2: Personal Details Grid -->
      <g transform="translate(0, 125)" class="sans-text">
        <!-- Item 1: Current Focus -->
        <g>
          <text x="0" y="2" font-size="13" font-weight="600" fill="#94A3B8">⚡ Current Focus:</text>
          <text x="120" y="2" font-size="13" font-weight="600" fill="#22D3EE">Ultimate Autonomous AI Agents &amp; Swarms</text>
        </g>

        <!-- Item 2: Email -->
        <g transform="translate(0, 32)">
          <text x="0" y="4" font-size="13" font-weight="600" fill="#94A3B8">✉️ Email:</text>
          <text x="70" y="4" font-size="13" font-weight="500" fill="#10B981">pradhyut2007@gmail.com</text>
        </g>
      </g>

      <!-- Horizontal Divider -->
      <line x1="0" y1="205" x2="620" y2="205" stroke="rgba(255,255,255,0.08)" stroke-width="1" />

      <!-- Section 3: Skills Section (Glowing Pills Grid) -->
      <g transform="translate(0, 225)">
        <text class="sans-text" font-size="12" font-weight="700" fill="#94A3B8" letter-spacing="1">SKILLS &amp; AI AGENT STACK</text>

        <!-- Skills Pills Container -->
        <g transform="translate(0, 18)" class="mono-text">
          <!-- Row 1 -->
          <!-- Pill: AI Agents -->
          <g transform="translate(0, 0)" filter="url(#pill-shadow)">
            <rect width="94" height="28" rx="14" fill="url(#pill-bg)" stroke="#10B981" stroke-opacity="0.5" stroke-width="1" />
            <circle cx="16" cy="14" r="4" fill="#10B981" />
            <text x="28" y="18" font-size="11" font-weight="600" fill="#F8FAFC">AI Agents</text>
          </g>

          <!-- Pill: LangGraph -->
          <g transform="translate(104, 0)" filter="url(#pill-shadow)">
            <rect width="96" height="28" rx="14" fill="url(#pill-bg)" stroke="#22D3EE" stroke-opacity="0.5" stroke-width="1" />
            <circle cx="16" cy="14" r="4" fill="#22D3EE" />
            <text x="28" y="18" font-size="11" font-weight="600" fill="#F8FAFC">LangGraph</text>
          </g>

          <!-- Pill: Python -->
          <g transform="translate(210, 0)" filter="url(#pill-shadow)">
            <rect width="86" height="28" rx="14" fill="url(#pill-bg)" stroke="#3776AB" stroke-opacity="0.5" stroke-width="1" />
            <circle cx="16" cy="14" r="4" fill="#3776AB" />
            <text x="28" y="18" font-size="11" font-weight="600" fill="#F8FAFC">Python</text>
          </g>

          <!-- Pill: TypeScript -->
          <g transform="translate(306, 0)" filter="url(#pill-shadow)">
            <rect width="106" height="28" rx="14" fill="url(#pill-bg)" stroke="#3178C6" stroke-opacity="0.5" stroke-width="1" />
            <circle cx="16" cy="14" r="4" fill="#3178C6" />
            <text x="28" y="18" font-size="11" font-weight="600" fill="#F8FAFC">TypeScript</text>
          </g>

          <!-- Pill: Next.js -->
          <g transform="translate(422, 0)" filter="url(#pill-shadow)">
            <rect width="86" height="28" rx="14" fill="url(#pill-bg)" stroke="#F8FAFC" stroke-opacity="0.5" stroke-width="1" />
            <circle cx="16" cy="14" r="4" fill="#F8FAFC" />
            <text x="28" y="18" font-size="11" font-weight="600" fill="#F8FAFC">Next.js</text>
          </g>

          <!-- Pill: React -->
          <g transform="translate(518, 0)" filter="url(#pill-shadow)">
            <rect width="76" height="28" rx="14" fill="url(#pill-bg)" stroke="#61DAFB" stroke-opacity="0.5" stroke-width="1" />
            <circle cx="16" cy="14" r="4" fill="#61DAFB" />
            <text x="28" y="18" font-size="11" font-weight="600" fill="#F8FAFC">React</text>
          </g>

          <!-- Row 2 -->
          <!-- Pill: RAG & Vector -->
          <g transform="translate(0, 38)" filter="url(#pill-shadow)">
            <rect width="102" height="28" rx="14" fill="url(#pill-bg)" stroke="#A855F7" stroke-opacity="0.5" stroke-width="1" />
            <circle cx="16" cy="14" r="4" fill="#A855F7" />
            <text x="28" y="18" font-size="11" font-weight="600" fill="#F8FAFC">Agentic RAG</text>
          </g>

          <!-- Pill: Node.js -->
          <g transform="translate(112, 38)" filter="url(#pill-shadow)">
            <rect width="88" height="28" rx="14" fill="url(#pill-bg)" stroke="#5FA04E" stroke-opacity="0.5" stroke-width="1" />
            <circle cx="16" cy="14" r="4" fill="#5FA04E" />
            <text x="28" y="18" font-size="11" font-weight="600" fill="#F8FAFC">Node.js</text>
          </g>

          <!-- Pill: FastAPI -->
          <g transform="translate(210, 38)" filter="url(#pill-shadow)">
            <rect width="84" height="28" rx="14" fill="url(#pill-bg)" stroke="#059669" stroke-opacity="0.5" stroke-width="1" />
            <circle cx="16" cy="14" r="4" fill="#059669" />
            <text x="28" y="18" font-size="11" font-weight="600" fill="#F8FAFC">FastAPI</text>
          </g>

          <!-- Pill: Docker -->
          <g transform="translate(304, 38)" filter="url(#pill-shadow)">
            <rect width="84" height="28" rx="14" fill="url(#pill-bg)" stroke="#2496ED" stroke-opacity="0.5" stroke-width="1" />
            <circle cx="16" cy="14" r="4" fill="#2496ED" />
            <text x="28" y="18" font-size="11" font-weight="600" fill="#F8FAFC">Docker</text>
          </g>

          <!-- Pill: Postgres -->
          <g transform="translate(398, 38)" filter="url(#pill-shadow)">
            <rect width="96" height="28" rx="14" fill="url(#pill-bg)" stroke="#4169E1" stroke-opacity="0.5" stroke-width="1" />
            <circle cx="16" cy="14" r="4" fill="#4169E1" />
            <text x="28" y="18" font-size="11" font-weight="600" fill="#F8FAFC">Postgres</text>
          </g>

          <!-- Pill: Tailwind -->
          <g transform="translate(504, 38)" filter="url(#pill-shadow)">
            <rect width="90" height="28" rx="14" fill="url(#pill-bg)" stroke="#06B6D4" stroke-opacity="0.5" stroke-width="1" />
            <circle cx="16" cy="14" r="4" fill="#06B6D4" />
            <text x="28" y="18" font-size="11" font-weight="600" fill="#F8FAFC">Tailwind</text>
          </g>
        </g>
      </g>

      <!-- Horizontal Divider -->
      <line x1="0" y1="320" x2="620" y2="320" stroke="rgba(255,255,255,0.08)" stroke-width="1" />

      <!-- Section 4: Social Icons & Connect Bar -->
      <g transform="translate(0, 340)">
        <text class="sans-text" font-size="12" font-weight="700" fill="#94A3B8" letter-spacing="1">CONNECT WITH ME</text>

        <!-- Social Badges Container -->
        <g transform="translate(0, 18)">
          <!-- GitHub Social Button -->
          <g transform="translate(0, 0)">
            <rect width="130" height="34" rx="8" fill="#1E293B" fill-opacity="0.8" stroke="rgba(255,255,255,0.12)" stroke-width="1" />
            <path d="M 22 10 C 15.37 10 10 15.37 10 22 C 10 27.3 13.44 31.8 18.2 33.38 C 18.8 33.49 19 33.12 19 32.8 C 19 32.52 18.99 31.65 18.98 30.64 C 15.65 31.37 14.95 29.3 14.95 29.3 C 14.4 27.92 13.62 27.55 13.62 27.55 C 12.53 26.81 13.7 26.83 13.7 26.83 C 14.9 26.91 15.53 28.06 15.53 28.06 C 16.6 29.89 18.33 29.36 19 29.05 C 19.11 28.27 19.42 27.74 19.77 27.44 C 17.11 27.14 14.32 26.11 14.32 21.52 C 14.32 20.21 14.78 19.14 15.54 18.3 C 15.42 18 15.01 16.78 15.66 15.13 C 15.66 15.13 16.66 14.81 18.95 16.36 C 19.9 16.1 20.92 15.97 21.94 15.96 C 22.96 15.97 23.98 16.1 24.93 16.36 C 27.22 14.81 28.21 15.13 28.21 15.13 C 28.87 16.78 28.46 18 28.34 18.3 C 29.1 19.14 29.56 20.21 29.56 21.52 C 29.56 26.12 26.76 27.13 24.09 27.43 C 24.52 27.8 24.9 28.53 24.9 29.66 C 24.9 31.27 24.89 32.57 24.89 32.8 C 24.89 33.12 25.09 33.5 25.7 33.38 C 30.46 31.8 33.9 27.3 33.9 22 C 33.9 15.37 28.53 10 22 10 Z" fill="#F8FAFC" />
            <text x="44" y="22" class="sans-text" font-size="12" font-weight="600" fill="#F8FAFC">GitHub</text>
          </g>

          <!-- LinkedIn Social Button -->
          <g transform="translate(142, 0)">
            <rect width="130" height="34" rx="8" fill="#1E293B" fill-opacity="0.8" stroke="rgba(255,255,255,0.12)" stroke-width="1" />
            <path d="M 14 12 C 12.9 12 12 12.9 12 14 C 12 15.1 12.9 16 14 16 C 15.1 16 16 15.1 16 14 C 16 12.9 15.1 12 14 12 Z M 12.5 18 H 15.5 V 30 H 12.5 V 18 Z M 18 18 H 20.8 V 19.6 H 20.9 C 21.3 18.8 22.3 17.9 23.9 17.9 C 27.1 17.9 27.7 20 27.7 22.7 V 30 H 24.7 V 25.3 C 24.7 24.2 24.7 22.7 23.1 22.7 C 21.5 22.7 21.3 23.9 21.3 25.2 V 30 H 18.3 V 18 Z" fill="#0A66C2" />
            <text x="44" y="22" class="sans-text" font-size="12" font-weight="600" fill="#F8FAFC">LinkedIn</text>
          </g>

          <!-- X / Twitter Social Button -->
          <g transform="translate(284, 0)">
            <rect width="120" height="34" rx="8" fill="#1E293B" fill-opacity="0.8" stroke="rgba(255,255,255,0.12)" stroke-width="1" />
            <path d="M 14 12 L 20.5 20.7 L 13.5 29 H 15 L 21.2 21.6 L 26 29 H 30.5 L 23.6 19.8 L 30 12 H 28.5 L 22.8 18.8 L 18.5 12 H 14 Z M 16.2 13.2 H 18.5 L 28.3 27.8 H 26 L 16.2 13.2 Z" fill="#38BDF8" />
            <text x="42" y="22" class="sans-text" font-size="12" font-weight="600" fill="#F8FAFC">Twitter</text>
          </g>

        </g>
      </g>
    </g>

    <!-- Terminal Footer Status Bar -->
    <path d="M 0 514 L 685 514 L 685 534 C 685 542.837 677.837 550 669 550 L 16 550 C 7.163 550 0 542.837 0 534 Z" fill="#1E293B" fill-opacity="0.4" />
    <text x="24" y="534" class="mono-text" font-size="11" fill="#64748B">utf-8 [unix]  |  space: 2  |  git:(main) 🔀</text>
    <text x="660" y="534" text-anchor="end" class="mono-text" font-size="11" fill="#64748B">LN 42, COL 18  |  100%</text>
  </g>
</svg>
